<svg xmlns="http://www.w3.org/2000/svg" xmlns:svg="http://www.w3.org/2000/svg" xmlns:xlink="http://www.w3.org/1999/xlink" id="svg2" width="362.734" height="411.38" x="0" y="0" enable-background="new 0 100.62 362.734 411.38" version="1.1" viewBox="0 100.62 362.734 411.38" xml:space="preserve"><g id="layer1" transform="translate(-170.06157,-270.18109)"><g id="g3013" transform="translate(95.428571,270.18109)"><polygon id="polygon2989" fill="#264DE4" points="255.778 512 107.644 470.877 74.633 100.62 437.367 100.62 404.321 470.819"/><polygon id="polygon2991" fill="#2965F1" points="376.03 447.246 404.27 130.894 256 130.894 256 480.523"/><polygon id="polygon2993" fill="#EBEBEB" points="150.31 268.217 154.38 313.627 256 313.627 256 268.217"/><polygon id="polygon2995" fill="#EBEBEB" points="142.132 176.305 146.26 221.716 256 221.716 256 176.305 255.843 176.305"/><polygon id="polygon2997" fill="#EBEBEB" points="256 386.153 255.801 386.206 205.227 372.55 201.994 336.333 177.419 336.333 156.409 336.333 162.771 407.634 255.791 433.457 256 433.399"/><polygon id="polygon3005" fill="#FFF" points="361.399 268.217 369.597 176.305 255.843 176.305 255.843 221.716 319.831 221.716 315.699 268.217 255.843 268.217 255.843 313.627 311.761 313.627 306.49 372.521 255.843 386.191 255.843 433.435 348.937 407.634 349.62 399.962 360.291 280.411"/></g></g></svg>